<svg xmlns="http://www.w3.org/2000/svg" viewBox="0 0 137.398 88.257"><defs><style>.a{fill:#231f20;}</style></defs><title>icon</title><path class="a" d="M110.66,34.394,126.571,6.676A4.538,4.538,0,0,0,122.578,0H108.256a4.507,4.507,0,0,0-3.905,2.253L98.376,12.979,95.438,7.855a15.873,15.873,0,0,0-2.6-3.3,16.067,16.067,0,0,0-6.8-3.945A16.616,16.616,0,0,0,84.211.206C83.543.1,81.808,0,81.63,0L32.2.011a4.524,4.524,0,0,0-4.529,4.523v9.487A4.522,4.522,0,0,0,32.2,18.537H52.532L33.816,50.311H23.668V4.534A4.522,4.522,0,0,0,19.151.011H5.62A4.531,4.531,0,0,0,1.091,4.534v48.5A16.072,16.072,0,0,0,17.159,68.8l71.146-.005h.012a4.53,4.53,0,0,0,3.849-2.154l6.21-10.826,17.357,30.2a4.5,4.5,0,0,0,3.606,2.236c.089.006,14.621,0,14.621,0a4.519,4.519,0,0,0,3.984-6.67ZM77.49,50.311H59.008l12.74-21.559,5.931-10.126,8.779,15.768Z" transform="translate(-1.091)"/></svg>